<?xml version="1.0" encoding="UTF-8"?>
<!DOCTYPE svg PUBLIC "-//W3C//DTD SVG 1.1//EN" "http://www.w3.org/Graphics/SVG/1.1/DTD/svg11.dtd">
<!-- Creator: CorelDRAW X7 -->
<svg xmlns="http://www.w3.org/2000/svg" xml:space="preserve" width="11.4932mm" height="11.1973mm" version="1.1" style="shape-rendering:geometricPrecision; text-rendering:geometricPrecision; image-rendering:optimizeQuality; fill-rule:evenodd; clip-rule:evenodd"
viewBox="0 0 1149 1120"
 xmlns:xlink="http://www.w3.org/1999/xlink">
 <defs>
  <style type="text/css">
   <![CDATA[
    .fil0 {fill:#141530}
   ]]>
  </style>
 </defs>
 <g id="__x0023_Layer_x0020_1">
  <metadata id="CorelCorpID_0Corel-Layer"/>
  <path class="fil0" d="M571 0c-317,0 -571,254 -571,571 0,253 166,475 396,547 24,8 40,-8 40,-24 0,-16 -8,-56 -8,-103 -159,39 -190,-72 -190,-72 -24,-71 -64,-87 -64,-87 -55,-31 0,-31 0,-31 64,0 95,55 95,55 48,87 135,63 167,48 0,-32 16,-64 32,-80 -127,-8 -262,-63 -262,-277 0,-63 24,-119 63,-159 -7,-15 -31,-71 0,-150 0,0 48,-16 159,55 48,-8 95,-16 143,-16 55,0 103,8 150,16 103,-71 159,-55 159,-55 24,79 8,135 0,150 39,40 63,96 63,159 0,222 -135,269 -261,277 16,24 39,56 39,111 0,80 -8,135 -8,159 0,16 16,32 40,24 230,-72 396,-294 396,-547 0,-317 -261,-571 -578,-571z"/>
 </g>
</svg>
