<?xml version="1.0" encoding="UTF-8"?>
<!DOCTYPE svg PUBLIC "-//W3C//DTD SVG 1.1//EN" "http://www.w3.org/Graphics/SVG/1.1/DTD/svg11.dtd">
<!-- Creator: CorelDRAW X7 -->
<svg xmlns="http://www.w3.org/2000/svg" xml:space="preserve" width="4.4892mm" height="4.226mm" version="1.1" style="shape-rendering:geometricPrecision; text-rendering:geometricPrecision; image-rendering:optimizeQuality; fill-rule:evenodd; clip-rule:evenodd"
viewBox="0 0 450 423"
 xmlns:xlink="http://www.w3.org/1999/xlink">
 <defs>
  <style type="text/css">
   <![CDATA[
    .fil0 {fill:#FEFEFE}
   ]]>
  </style>
 </defs>
 <g id="Слой_x0020_1">
  <metadata id="CorelCorpID_0Corel-Layer"/>
  <path class="fil0" d="M340 423c-17,0 -32,-3 -46,-6 -103,-30 -178,-93 -241,-178 -23,-30 -44,-64 -50,-102 -9,-48 4,-88 40,-120 10,-11 44,-15 58,-8 5,2 8,6 11,11 12,31 26,61 38,92 2,5 2,11 -1,17 -7,14 -17,24 -28,37 -8,7 -8,15 -3,24 37,60 86,105 150,131 11,3 19,1 25,-6 10,-13 23,-27 32,-40 8,-10 15,-11 24,-7 24,10 43,20 66,30 5,3 10,4 14,6 22,12 22,12 20,37 -4,46 -40,69 -81,79 -9,3 -18,3 -28,3l0 0z"/>
  <path class="fil0" d="M380 61c17,14 29,34 40,54 8,17 12,35 15,52 0,3 2,8 -1,11 -9,1 -20,1 -29,1 -3,2 -5,0 -5,-3 -4,-33 -18,-62 -43,-87 -32,-37 -75,-54 -124,-54 -2,0 -2,0 -6,0 0,-9 0,-20 -2,-32 3,-3 6,-3 9,-3 22,0 42,2 60,8 17,6 33,12 46,21 5,2 8,5 13,9 3,2 9,8 13,11 3,3 11,8 14,12l0 0z"/>
  <path class="fil0" d="M333 89c26,23 43,52 49,87 0,5 0,7 -5,7 -9,0 -17,1 -26,3 -3,0 -5,-2 -5,-5 -4,-31 -20,-55 -44,-72 -20,-14 -41,-20 -64,-20 -4,0 -5,0 -5,-5 0,-9 -2,-16 -2,-26 0,-3 0,-3 3,-3 37,-1 69,9 99,34l0 0z"/>
  <path class="fil0" d="M296 189c-5,-28 -26,-48 -54,-49 -3,0 -4,0 -4,-3 0,-8 -2,-17 -4,-27 0,-3 2,-3 4,-3 42,-3 87,34 92,77 0,3 -2,3 -4,3 -10,0 -19,2 -30,2l0 0z"/>
 </g>
</svg>
