<?xml version="1.0" encoding="UTF-8"?>
<!DOCTYPE svg PUBLIC "-//W3C//DTD SVG 1.1//EN" "http://www.w3.org/Graphics/SVG/1.1/DTD/svg11.dtd">
<!-- Creator: CorelDRAW X7 -->
<svg xmlns="http://www.w3.org/2000/svg" xml:space="preserve" width="4.4863mm" height="4.231mm" version="1.1" style="shape-rendering:geometricPrecision; text-rendering:geometricPrecision; image-rendering:optimizeQuality; fill-rule:evenodd; clip-rule:evenodd"
viewBox="0 0 293 276"
 xmlns:xlink="http://www.w3.org/1999/xlink">
 <defs>
  <style type="text/css">
   <![CDATA[
    .fil0 {fill:#141530}
   ]]>
  </style>
 </defs>
 <g id="Слой_x0020_1">
  <metadata id="CorelCorpID_0Corel-Layer"/>
  <path class="fil0" d="M222 276c-11,0 -21,-2 -30,-4 -67,-20 -116,-61 -157,-116 -15,-20 -29,-42 -33,-67 -6,-31 3,-57 26,-78 7,-7 29,-10 38,-5 3,1 5,4 7,7 8,20 17,40 25,60 1,3 1,7 -1,11 -4,9 -11,16 -18,24 -5,5 -5,10 -2,16 24,39 56,68 98,85 7,2 12,1 16,-4 7,-8 15,-17 21,-26 5,-6 10,-7 16,-4 15,6 28,13 43,19 3,2 6,3 9,4 14,8 14,8 13,24 -3,30 -26,45 -53,52 -6,2 -12,2 -18,2z"/>
  <path class="fil0" d="M248 40c11,9 19,22 26,35 5,11 8,23 10,34 0,2 1,5 -1,7 -6,1 -13,1 -19,1 -2,1 -3,0 -3,-2 -3,-22 -12,-41 -28,-57 -21,-24 -49,-35 -81,-35 -1,0 -1,0 -4,0 0,-6 0,-13 -1,-21 2,-2 4,-2 6,-2 14,0 27,1 39,5 11,4 21,8 30,14 3,1 5,3 8,6 2,1 6,5 9,7 2,2 7,5 9,8z"/>
  <path class="fil0" d="M217 58c17,15 28,34 32,57 0,3 0,4 -3,4 -6,0 -11,1 -17,2 -2,0 -3,-1 -3,-3 -3,-20 -13,-36 -29,-47 -13,-9 -27,-13 -42,-13 -2,0 -3,0 -3,-3 0,-6 -1,-11 -1,-17 0,-2 0,-2 2,-2 24,-1 45,6 64,22z"/>
  <path class="fil0" d="M193 123c-3,-18 -17,-31 -35,-32 -2,0 -3,0 -3,-2 0,-5 -1,-11 -2,-17 0,-2 1,-2 2,-2 28,-2 57,22 60,50 0,2 -1,2 -2,2 -7,0 -13,1 -20,1z"/>
 </g>
</svg>
